<?xml version="1.0" encoding="UTF-8"?>
<svg xmlns="http://www.w3.org/2000/svg" xmlns:xlink="http://www.w3.org/1999/xlink" width="3873" height="3873" viewBox="0 0 3873 3873">
<defs>
<clipPath id="clip-0">
<path clip-rule="evenodd" d="M 1936.5 0 C 3006 0 3873 867 3873 1936.5 C 3873 3006 3006 3873 1936.5 3873 C 867 3873 0 3006 0 1936.5 C 0 867 867 0 1936.5 0 "/>
</clipPath>
<radialGradient id="radial-pattern-0" gradientUnits="userSpaceOnUse" cx="0" cy="0" fx="0" fy="0" r="1549.19" gradientTransform="matrix(1, 0, 0, 1, 1936.5, 1936.5)">
<stop offset="0" stop-color="rgb(33.201599%, 33.201599%, 33.201599%)" stop-opacity="1"/>
<stop offset="0.0078125" stop-color="rgb(32.876587%, 32.876587%, 32.876587%)" stop-opacity="1"/>
<stop offset="0.0195312" stop-color="rgb(32.485962%, 32.485962%, 32.485962%)" stop-opacity="1"/>
<stop offset="0.03125" stop-color="rgb(32.095337%, 32.095337%, 32.095337%)" stop-opacity="1"/>
<stop offset="0.0429688" stop-color="rgb(31.704712%, 31.704712%, 31.704712%)" stop-opacity="1"/>
<stop offset="0.0546875" stop-color="rgb(31.314087%, 31.314087%, 31.314087%)" stop-opacity="1"/>
<stop offset="0.0664062" stop-color="rgb(30.923462%, 30.923462%, 30.923462%)" stop-opacity="1"/>
<stop offset="0.078125" stop-color="rgb(30.532837%, 30.532837%, 30.532837%)" stop-opacity="1"/>
<stop offset="0.0898438" stop-color="rgb(30.142212%, 30.142212%, 30.142212%)" stop-opacity="1"/>
<stop offset="0.101562" stop-color="rgb(29.751587%, 29.751587%, 29.751587%)" stop-opacity="1"/>
<stop offset="0.113281" stop-color="rgb(29.360962%, 29.360962%, 29.360962%)" stop-opacity="1"/>
<stop offset="0.125" stop-color="rgb(28.970337%, 28.970337%, 28.970337%)" stop-opacity="1"/>
<stop offset="0.136719" stop-color="rgb(28.579712%, 28.579712%, 28.579712%)" stop-opacity="1"/>
<stop offset="0.148438" stop-color="rgb(28.189087%, 28.189087%, 28.189087%)" stop-opacity="1"/>
<stop offset="0.160156" stop-color="rgb(27.798462%, 27.798462%, 27.798462%)" stop-opacity="1"/>
<stop offset="0.171875" stop-color="rgb(27.407837%, 27.407837%, 27.407837%)" stop-opacity="1"/>
<stop offset="0.183594" stop-color="rgb(27.017212%, 27.017212%, 27.017212%)" stop-opacity="1"/>
<stop offset="0.195312" stop-color="rgb(26.626587%, 26.626587%, 26.626587%)" stop-opacity="1"/>
<stop offset="0.207031" stop-color="rgb(26.235962%, 26.235962%, 26.235962%)" stop-opacity="1"/>
<stop offset="0.21875" stop-color="rgb(25.845337%, 25.845337%, 25.845337%)" stop-opacity="1"/>
<stop offset="0.230469" stop-color="rgb(25.454712%, 25.454712%, 25.454712%)" stop-opacity="1"/>
<stop offset="0.242188" stop-color="rgb(25.064087%, 25.064087%, 25.064087%)" stop-opacity="1"/>
<stop offset="0.253906" stop-color="rgb(24.737549%, 24.737549%, 24.737549%)" stop-opacity="1"/>
<stop offset="0.261719" stop-color="rgb(24.478149%, 24.478149%, 24.478149%)" stop-opacity="1"/>
<stop offset="0.269531" stop-color="rgb(24.217224%, 24.217224%, 24.217224%)" stop-opacity="1"/>
<stop offset="0.277344" stop-color="rgb(23.956299%, 23.956299%, 23.956299%)" stop-opacity="1"/>
<stop offset="0.285156" stop-color="rgb(23.696899%, 23.696899%, 23.696899%)" stop-opacity="1"/>
<stop offset="0.292969" stop-color="rgb(23.435974%, 23.435974%, 23.435974%)" stop-opacity="1"/>
<stop offset="0.300781" stop-color="rgb(23.175049%, 23.175049%, 23.175049%)" stop-opacity="1"/>
<stop offset="0.308594" stop-color="rgb(22.915649%, 22.915649%, 22.915649%)" stop-opacity="1"/>
<stop offset="0.316406" stop-color="rgb(22.654724%, 22.654724%, 22.654724%)" stop-opacity="1"/>
<stop offset="0.324219" stop-color="rgb(22.393799%, 22.393799%, 22.393799%)" stop-opacity="1"/>
<stop offset="0.332031" stop-color="rgb(22.134399%, 22.134399%, 22.134399%)" stop-opacity="1"/>
<stop offset="0.339844" stop-color="rgb(21.873474%, 21.873474%, 21.873474%)" stop-opacity="1"/>
<stop offset="0.347656" stop-color="rgb(21.612549%, 21.612549%, 21.612549%)" stop-opacity="1"/>
<stop offset="0.355469" stop-color="rgb(21.353149%, 21.353149%, 21.353149%)" stop-opacity="1"/>
<stop offset="0.363281" stop-color="rgb(21.092224%, 21.092224%, 21.092224%)" stop-opacity="1"/>
<stop offset="0.371094" stop-color="rgb(20.831299%, 20.831299%, 20.831299%)" stop-opacity="1"/>
<stop offset="0.378906" stop-color="rgb(20.571899%, 20.571899%, 20.571899%)" stop-opacity="1"/>
<stop offset="0.386719" stop-color="rgb(20.310974%, 20.310974%, 20.310974%)" stop-opacity="1"/>
<stop offset="0.394531" stop-color="rgb(20.050049%, 20.050049%, 20.050049%)" stop-opacity="1"/>
<stop offset="0.402344" stop-color="rgb(19.790649%, 19.790649%, 19.790649%)" stop-opacity="1"/>
<stop offset="0.410156" stop-color="rgb(19.529724%, 19.529724%, 19.529724%)" stop-opacity="1"/>
<stop offset="0.417969" stop-color="rgb(19.268799%, 19.268799%, 19.268799%)" stop-opacity="1"/>
<stop offset="0.425781" stop-color="rgb(19.009399%, 19.009399%, 19.009399%)" stop-opacity="1"/>
<stop offset="0.433594" stop-color="rgb(18.748474%, 18.748474%, 18.748474%)" stop-opacity="1"/>
<stop offset="0.441406" stop-color="rgb(18.487549%, 18.487549%, 18.487549%)" stop-opacity="1"/>
<stop offset="0.449219" stop-color="rgb(18.228149%, 18.228149%, 18.228149%)" stop-opacity="1"/>
<stop offset="0.457031" stop-color="rgb(17.967224%, 17.967224%, 17.967224%)" stop-opacity="1"/>
<stop offset="0.464844" stop-color="rgb(17.706299%, 17.706299%, 17.706299%)" stop-opacity="1"/>
<stop offset="0.472656" stop-color="rgb(17.446899%, 17.446899%, 17.446899%)" stop-opacity="1"/>
<stop offset="0.480469" stop-color="rgb(17.185974%, 17.185974%, 17.185974%)" stop-opacity="1"/>
<stop offset="0.488281" stop-color="rgb(16.925049%, 16.925049%, 16.925049%)" stop-opacity="1"/>
<stop offset="0.496094" stop-color="rgb(16.665649%, 16.665649%, 16.665649%)" stop-opacity="1"/>
<stop offset="0.503906" stop-color="rgb(16.340637%, 16.340637%, 16.340637%)" stop-opacity="1"/>
<stop offset="0.515625" stop-color="rgb(15.950012%, 15.950012%, 15.950012%)" stop-opacity="1"/>
<stop offset="0.527344" stop-color="rgb(15.559387%, 15.559387%, 15.559387%)" stop-opacity="1"/>
<stop offset="0.539062" stop-color="rgb(15.168762%, 15.168762%, 15.168762%)" stop-opacity="1"/>
<stop offset="0.550781" stop-color="rgb(14.778137%, 14.778137%, 14.778137%)" stop-opacity="1"/>
<stop offset="0.5625" stop-color="rgb(14.387512%, 14.387512%, 14.387512%)" stop-opacity="1"/>
<stop offset="0.574219" stop-color="rgb(13.996887%, 13.996887%, 13.996887%)" stop-opacity="1"/>
<stop offset="0.585938" stop-color="rgb(13.606262%, 13.606262%, 13.606262%)" stop-opacity="1"/>
<stop offset="0.597656" stop-color="rgb(13.215637%, 13.215637%, 13.215637%)" stop-opacity="1"/>
<stop offset="0.609375" stop-color="rgb(12.825012%, 12.825012%, 12.825012%)" stop-opacity="1"/>
<stop offset="0.621094" stop-color="rgb(12.434387%, 12.434387%, 12.434387%)" stop-opacity="1"/>
<stop offset="0.632812" stop-color="rgb(12.107849%, 12.107849%, 12.107849%)" stop-opacity="1"/>
<stop offset="0.640625" stop-color="rgb(11.846924%, 11.846924%, 11.846924%)" stop-opacity="1"/>
<stop offset="0.648438" stop-color="rgb(11.587524%, 11.587524%, 11.587524%)" stop-opacity="1"/>
<stop offset="0.65625" stop-color="rgb(11.326599%, 11.326599%, 11.326599%)" stop-opacity="1"/>
<stop offset="0.664062" stop-color="rgb(11.065674%, 11.065674%, 11.065674%)" stop-opacity="1"/>
<stop offset="0.671875" stop-color="rgb(10.806274%, 10.806274%, 10.806274%)" stop-opacity="1"/>
<stop offset="0.679688" stop-color="rgb(10.545349%, 10.545349%, 10.545349%)" stop-opacity="1"/>
<stop offset="0.6875" stop-color="rgb(10.284424%, 10.284424%, 10.284424%)" stop-opacity="1"/>
<stop offset="0.695312" stop-color="rgb(10.025024%, 10.025024%, 10.025024%)" stop-opacity="1"/>
<stop offset="0.703125" stop-color="rgb(9.764099%, 9.764099%, 9.764099%)" stop-opacity="1"/>
<stop offset="0.710938" stop-color="rgb(9.503174%, 9.503174%, 9.503174%)" stop-opacity="1"/>
<stop offset="0.71875" stop-color="rgb(9.243774%, 9.243774%, 9.243774%)" stop-opacity="1"/>
<stop offset="0.726562" stop-color="rgb(8.982849%, 8.982849%, 8.982849%)" stop-opacity="1"/>
<stop offset="0.734375" stop-color="rgb(8.721924%, 8.721924%, 8.721924%)" stop-opacity="1"/>
<stop offset="0.742188" stop-color="rgb(8.462524%, 8.462524%, 8.462524%)" stop-opacity="1"/>
<stop offset="0.75" stop-color="rgb(8.201599%, 8.201599%, 8.201599%)" stop-opacity="1"/>
<stop offset="0.757812" stop-color="rgb(7.876587%, 7.876587%, 7.876587%)" stop-opacity="1"/>
<stop offset="0.769531" stop-color="rgb(7.485962%, 7.485962%, 7.485962%)" stop-opacity="1"/>
<stop offset="0.78125" stop-color="rgb(7.095337%, 7.095337%, 7.095337%)" stop-opacity="1"/>
<stop offset="0.792969" stop-color="rgb(6.704712%, 6.704712%, 6.704712%)" stop-opacity="1"/>
<stop offset="0.804688" stop-color="rgb(6.314087%, 6.314087%, 6.314087%)" stop-opacity="1"/>
<stop offset="0.816406" stop-color="rgb(5.987549%, 5.987549%, 5.987549%)" stop-opacity="1"/>
<stop offset="0.824219" stop-color="rgb(5.728149%, 5.728149%, 5.728149%)" stop-opacity="1"/>
<stop offset="0.832031" stop-color="rgb(5.467224%, 5.467224%, 5.467224%)" stop-opacity="1"/>
<stop offset="0.839844" stop-color="rgb(5.206299%, 5.206299%, 5.206299%)" stop-opacity="1"/>
<stop offset="0.847656" stop-color="rgb(4.946899%, 4.946899%, 4.946899%)" stop-opacity="1"/>
<stop offset="0.855469" stop-color="rgb(4.685974%, 4.685974%, 4.685974%)" stop-opacity="1"/>
<stop offset="0.863281" stop-color="rgb(4.425049%, 4.425049%, 4.425049%)" stop-opacity="1"/>
<stop offset="0.871094" stop-color="rgb(4.165649%, 4.165649%, 4.165649%)" stop-opacity="1"/>
<stop offset="0.878906" stop-color="rgb(3.840637%, 3.840637%, 3.840637%)" stop-opacity="1"/>
<stop offset="0.890625" stop-color="rgb(3.450012%, 3.450012%, 3.450012%)" stop-opacity="1"/>
<stop offset="0.902344" stop-color="rgb(3.059387%, 3.059387%, 3.059387%)" stop-opacity="1"/>
<stop offset="0.914062" stop-color="rgb(2.732849%, 2.732849%, 2.732849%)" stop-opacity="1"/>
<stop offset="0.921875" stop-color="rgb(2.471924%, 2.471924%, 2.471924%)" stop-opacity="1"/>
<stop offset="0.929688" stop-color="rgb(2.212524%, 2.212524%, 2.212524%)" stop-opacity="1"/>
<stop offset="0.9375" stop-color="rgb(1.951599%, 1.951599%, 1.951599%)" stop-opacity="1"/>
<stop offset="0.945312" stop-color="rgb(1.626587%, 1.626587%, 1.626587%)" stop-opacity="1"/>
<stop offset="0.957031" stop-color="rgb(1.300049%, 1.300049%, 1.300049%)" stop-opacity="1"/>
<stop offset="0.964844" stop-color="rgb(1.040649%, 1.040649%, 1.040649%)" stop-opacity="1"/>
<stop offset="0.972656" stop-color="rgb(0.715637%, 0.715637%, 0.715637%)" stop-opacity="1"/>
<stop offset="0.984375" stop-color="rgb(0.389099%, 0.389099%, 0.389099%)" stop-opacity="1"/>
<stop offset="0.992188" stop-color="rgb(0.1297%, 0.1297%, 0.1297%)" stop-opacity="1"/>
<stop offset="1" stop-color="rgb(0%, 0%, 0%)" stop-opacity="1"/>
</radialGradient>
</defs>
<g clip-path="url(#clip-0)">

</g>
<path fill-rule="evenodd" fill="rgb(100%, 100%, 99.609375%)" fill-opacity="1" d="M 1516.398438 2522.300781 C 1508.699219 2522.300781 1501 2519.398438 1495.199219 2513.5 L 1232.800781 2251.101562 C 1165.300781 2183.601562 1165.300781 2073.601562 1232.800781 2006.101562 L 1495.199219 1743.699219 C 1506.898438 1732 1525.898438 1732 1537.601562 1743.699219 C 1549.300781 1755.398438 1549.300781 1774.398438 1537.601562 1786.101562 L 1275.199219 2048.5 C 1231.101562 2092.699219 1231.101562 2164.5 1275.199219 2208.601562 L 1537.601562 2471 C 1549.300781 2482.699219 1549.300781 2501.699219 1537.601562 2513.398438 C 1531.699219 2519.398438 1524.101562 2522.300781 1516.398438 2522.300781 Z M 2356.601562 2522.300781 C 2348.898438 2522.300781 2341.199219 2519.398438 2335.398438 2513.5 C 2323.699219 2501.800781 2323.699219 2482.800781 2335.398438 2471.101562 L 2597.800781 2208.699219 C 2641.898438 2164.5 2641.898438 2092.699219 2597.800781 2048.601562 L 2335.398438 1786.199219 C 2323.699219 1774.5 2323.699219 1755.5 2335.398438 1743.800781 C 2347.101562 1732.101562 2366.101562 1732.101562 2377.800781 1743.800781 L 2640.199219 2006.199219 C 2707.699219 2073.699219 2707.699219 2183.699219 2640.199219 2251.199219 L 2377.800781 2513.601562 C 2372 2519.398438 2364.300781 2522.300781 2356.601562 2522.300781 Z M 2203.601562 1984.101562 L 2203.601562 2098.601562 L 2306.5 2098.601562 C 2338.101562 2098.601562 2363.699219 2072.898438 2363.699219 2041.398438 C 2363.699219 2009.800781 2338 1984.199219 2306.5 1984.199219 Z M 2173.5 2333.199219 C 2156.898438 2333.199219 2143.5 2319.800781 2143.5 2303.199219 L 2143.5 1953.5 C 2143.898438 1937.199219 2157.199219 1924.199219 2173.5 1924.199219 L 2306.398438 1924.199219 C 2371.101562 1924.199219 2423.699219 1976.800781 2423.699219 2041.5 C 2423.699219 2106.199219 2371.101562 2158.800781 2306.398438 2158.800781 L 2203.5 2158.800781 L 2203.5 2303.300781 C 2203.601562 2319.699219 2190.101562 2333.199219 2173.5 2333.199219 Z M 1936.5 1984.101562 C 1892.300781 1984.101562 1856.398438 2020 1856.398438 2064.199219 L 1856.398438 2193 C 1856.398438 2237.199219 1892.300781 2273.101562 1936.5 2273.101562 C 1980.699219 2273.101562 2016.601562 2237.199219 2016.601562 2193 L 2016.601562 2064.101562 C 2016.5 2020 1980.601562 1984.101562 1936.5 1984.101562 Z M 1936.5 2333.199219 C 1859.199219 2333.199219 1796.398438 2270.398438 1796.398438 2193.101562 L 1796.398438 2064.199219 C 1796.398438 1986.898438 1859.199219 1924.101562 1936.5 1924.101562 C 2013.800781 1924.101562 2076.601562 1986.898438 2076.601562 2064.199219 L 2076.601562 2193.101562 C 2076.601562 2270.300781 2013.800781 2333.199219 1936.5 2333.199219 Z M 1589.398438 1984.101562 C 1545.199219 1984.101562 1509.300781 2020 1509.300781 2064.199219 L 1509.300781 2193 C 1509.300781 2237.199219 1545.199219 2273.101562 1589.398438 2273.101562 C 1633.601562 2273.101562 1669.5 2237.199219 1669.5 2193 L 1669.5 2064.101562 C 1669.398438 2020 1633.5 1984.101562 1589.398438 1984.101562 Z M 1589.398438 2333.199219 C 1512.101562 2333.199219 1449.300781 2270.398438 1449.300781 2193.101562 L 1449.300781 2064.199219 C 1449.300781 1986.898438 1512.101562 1924.101562 1589.398438 1924.101562 C 1666.699219 1924.101562 1729.5 1986.898438 1729.5 2064.199219 L 1729.5 2193.101562 C 1729.5 2270.300781 1666.601562 2333.199219 1589.398438 2333.199219 Z M 2785.199219 2820.199219 L 1087.800781 2820.199219 C 990.699219 2820.199219 911.800781 2741.199219 911.800781 2644.199219 L 911.800781 1551.898438 C 921.199219 1555.199219 931.300781 1557 941.800781 1557 L 2931.199219 1557 C 2941.699219 1557 2951.800781 1555.199219 2961.199219 1551.898438 L 2961.199219 2644.199219 C 2961.199219 2741.300781 2882.300781 2820.300781 2785.199219 2820.199219 "/>
<path fill-rule="evenodd" fill="rgb(100%, 100%, 99.609375%)" fill-opacity="1" d="M 2197.398438 1263.800781 C 2178.5 1263.800781 2163.101562 1279.199219 2163.101562 1298.101562 C 2163.101562 1317 2178.5 1332.398438 2197.398438 1332.398438 L 2742.199219 1332.398438 C 2761.101562 1332.398438 2776.5 1317 2776.5 1298.101562 C 2776.5 1279.199219 2761.101562 1263.800781 2742.199219 1263.800781 Z M 2742.199219 1392.5 L 2197.398438 1392.5 C 2145.398438 1392.5 2103 1350.199219 2103 1298.101562 C 2103 1246.101562 2145.300781 1203.699219 2197.398438 1203.699219 L 2742.199219 1203.699219 C 2794.199219 1203.699219 2836.601562 1246 2836.601562 1298.101562 C 2836.601562 1350.199219 2794.300781 1392.5 2742.199219 1392.5 Z M 2931.199219 1497 L 1933.5 1497 L 2077.101562 1167.398438 C 2086.601562 1145.5 2090.199219 1122.101562 2087.398438 1099.300781 L 2785.101562 1099.300781 C 2882.199219 1099.300781 2961.101562 1178.300781 2961.101562 1275.300781 L 2961.101562 1467 C 2961.199219 1483.5 2947.800781 1497 2931.199219 1497 "/>
<path fill-rule="evenodd" fill="rgb(100%, 100%, 99.609375%)" fill-opacity="1" d="M 1279.101562 1218.699219 C 1248.101562 1218.699219 1222.898438 1243.898438 1222.898438 1274.898438 C 1222.898438 1305.898438 1248.101562 1331.101562 1279.101562 1331.101562 C 1310.101562 1331.101562 1335.300781 1305.898438 1335.300781 1274.898438 C 1335.300781 1243.898438 1310.101562 1218.699219 1279.101562 1218.699219 Z M 1279.101562 1391.101562 C 1215 1391.101562 1162.898438 1338.898438 1162.898438 1274.898438 C 1162.898438 1210.800781 1215.101562 1158.699219 1279.101562 1158.699219 C 1343.199219 1158.699219 1395.300781 1210.898438 1395.300781 1274.898438 C 1395.398438 1339 1343.199219 1391.101562 1279.101562 1391.101562 Z M 1661 1218.699219 C 1630 1218.699219 1604.800781 1243.898438 1604.800781 1274.898438 C 1604.800781 1305.898438 1630 1331.101562 1661 1331.101562 C 1692 1331.101562 1717.199219 1305.898438 1717.199219 1274.898438 C 1717.300781 1243.898438 1692 1218.699219 1661 1218.699219 Z M 1661 1391.101562 C 1596.898438 1391.101562 1544.800781 1338.898438 1544.800781 1274.898438 C 1544.800781 1210.800781 1597 1158.699219 1661 1158.699219 C 1725.101562 1158.699219 1777.199219 1210.898438 1777.199219 1274.898438 C 1777.300781 1339 1725.101562 1391.101562 1661 1391.101562 Z M 1848.300781 1497 L 941.800781 1497 C 925.199219 1497 911.800781 1483.601562 911.800781 1467 L 911.800781 1261.601562 C 911.800781 1146.398438 1005.5 1052.699219 1120.699219 1052.699219 L 1965.800781 1052.699219 C 1988.300781 1052.699219 2008.5 1064.300781 2019.898438 1083.601562 C 2030.398438 1101.300781 2031.199219 1122.601562 2022.101562 1143.398438 L 1875.898438 1479 C 1871.101562 1489.898438 1860.300781 1497 1848.300781 1497 "/>
</svg>
